<?xml version="1.0" standalone="no"?>
<!DOCTYPE svg PUBLIC "-//W3C//DTD SVG 20010904//EN"
 "http://www.w3.org/TR/2001/REC-SVG-20010904/DTD/svg10.dtd">
<svg version="1.0" xmlns="http://www.w3.org/2000/svg"
 width="2560.000000pt" height="1742.000000pt" viewBox="0 0 2560.000000 1742.000000"
 preserveAspectRatio="xMidYMid meet">

<g transform="translate(0.000000,1742.000000) scale(0.100000,-0.100000)"
fill="#000000" stroke="none">
<path d="M18385 17413 c-16 -2 -84 -10 -150 -19 -667 -85 -1311 -282 -1904
-584 -409 -208 -1002 -607 -1426 -960 -506 -420 -1028 -965 -1492 -1555 -175
-224 -486 -648 -604 -825 -9 -14 -19 -23 -22 -20 -2 3 -51 70 -108 150 -625
874 -1303 1619 -1983 2179 -948 781 -2003 1291 -3101 1500 -487 93 -849 121
-1595 124 -513 2 -603 -3 -920 -53 -1293 -205 -2481 -864 -3434 -1905 -842
-921 -1418 -2081 -1616 -3260 l-30 -176 0 -768 c0 -836 -2 -805 61 -1101 130
-617 422 -1327 776 -1888 425 -673 1001 -1264 1693 -1734 1286 -876 2949
-1301 4525 -1158 1400 127 2647 668 3600 1560 142 134 504 506 694 715 420
464 838 1007 1260 1639 l113 169 31 -49 c441 -693 881 -1254 1397 -1778 621
-632 1216 -1088 1927 -1478 492 -269 1074 -500 1585 -628 68 -17 188 -49 268
-70 472 -128 898 -184 1405 -183 488 1 864 47 1340 163 1523 373 2935 1371
3857 2725 294 433 546 920 714 1384 366 1009 446 2019 239 3036 -230 1133
-845 2207 -1740 3039 -1067 992 -2468 1631 -3945 1801 -109 12 -254 15 -760
13 -344 0 -638 -3 -655 -5z m1125 -2078 c1661 -176 3143 -1183 3720 -2529 96
-224 168 -455 214 -686 49 -246 60 -367 60 -650 0 -274 -11 -395 -55 -630
-278 -1467 -1492 -2815 -2977 -3307 -627 -207 -1258 -246 -1845 -113 -403 91
-817 216 -1077 325 -1374 577 -2559 1785 -3469 3537 l-92 177 112 178 c853
1344 1575 2193 2384 2801 148 110 479 333 629 421 469 276 1039 446 1651 491
163 12 568 4 745 -15z m-13170 -25 c426 5 949 -76 1369 -211 423 -136 893
-373 1282 -646 791 -553 1529 -1363 2307 -2529 204 -306 264 -404 258 -419
-15 -40 -422 -679 -639 -1005 -360 -539 -671 -953 -999 -1331 -167 -193 -673
-715 -791 -816 -246 -211 -481 -366 -772 -508 -1181 -577 -2714 -562 -4015 40
-865 400 -1549 1045 -1920 1810 -73 151 -172 389 -217 520 -197 575 -217 1240
-57 1895 367 1497 1591 2782 2974 3120 296 72 472 90 810 84 146 -3 330 -5
410 -4z"/>
<path d="M18460 12725 l0 -605 -590 0 -590 0 0 -565 0 -565 590 0 590 0 0
-605 0 -605 565 0 565 0 0 605 0 605 620 0 620 0 0 565 0 565 -620 0 -620 0 0
605 0 605 -565 0 -565 0 0 -605z"/>
<path d="M4200 11550 l0 -440 2130 0 2130 0 0 440 0 440 -2130 0 -2130 0 0
-440z"/>
<path d="M24020 16905 l0 -54 93 -3 92 -3 3 -242 2 -243 60 0 60 0 0 245 0
245 90 0 90 0 0 55 0 55 -245 0 -245 0 0 -55z"/>
<path d="M24550 16665 l0 -295 55 0 55 0 0 192 c0 105 3 189 6 185 3 -3 32
-88 64 -189 l58 -183 55 -3 c55 -3 56 -3 65 30 35 122 96 315 103 323 5 5 9
-70 9 -173 l0 -182 55 0 55 0 0 295 0 295 -78 0 -78 0 -38 -122 c-21 -68 -49
-160 -63 -206 -14 -45 -28 -80 -31 -77 -3 3 -34 94 -68 203 l-62 197 -81 3
-81 3 0 -296z"/>
<path d="M23575 4393 c-16 -2 -74 -13 -129 -24 -556 -115 -982 -536 -1184
-1170 -90 -282 -122 -496 -129 -862 -7 -360 15 -632 78 -942 76 -374 271 -727
524 -946 259 -224 569 -343 930 -356 307 -11 546 39 832 173 109 51 247 134
328 198 21 17 44 30 51 28 14 -3 117 106 175 185 349 472 510 1357 393 2163
-75 518 -285 976 -556 1212 -132 115 -199 151 -435 231 -248 86 -440 118 -684
116 -90 -1 -177 -4 -194 -6z m511 -757 c220 -84 382 -311 469 -658 50 -195 67
-342 72 -631 6 -299 -4 -469 -43 -696 -53 -316 -126 -485 -269 -626 -83 -81
-153 -126 -257 -163 -62 -22 -94 -26 -214 -30 -251 -7 -403 44 -544 186 -152
153 -239 366 -285 702 -23 162 -33 817 -15 972 25 226 71 401 145 553 83 173
190 285 340 356 118 56 191 69 375 65 141 -2 162 -5 226 -30z"/>
<path d="M15200 4015 l0 -335 455 0 455 0 0 -1415 0 -1415 -455 0 -455 0 0
-335 0 -335 1320 0 1320 0 0 335 0 335 -452 2 -453 3 -3 1413 -2 1412 455 0
455 0 0 335 0 335 -1320 0 -1320 0 0 -335z"/>
<path d="M11448 3203 c-4 -1464 -2 -1661 17 -1883 18 -203 32 -284 70 -396
117 -348 415 -627 810 -760 598 -200 1275 -64 1694 341 270 261 411 579 441
995 5 75 10 726 10 1482 l0 1348 -405 0 -406 0 1 -1417 c1 -1010 -2 -1441 -10
-1497 -23 -162 -81 -336 -141 -422 -102 -148 -341 -242 -589 -231 -137 6 -207
23 -318 78 -149 73 -257 195 -317 359 -27 71 -28 87 -36 320 -4 135 -8 632 -8
1106 -1 473 -4 1050 -8 1282 l-6 422 -399 0 -398 0 -2 -1127z"/>
<path d="M4313 4313 c-10 -4 -13 -429 -13 -2079 l0 -2074 405 0 405 0 0 658
c0 361 3 749 7 861 l6 204 116 -5 c256 -11 432 -118 534 -323 85 -171 447
-983 587 -1317 l32 -77 387 -3 c212 -2 404 0 426 4 53 8 79 41 72 90 -8 59
-696 1474 -772 1589 -70 105 -177 212 -257 258 -32 18 -46 32 -38 34 8 3 51
15 95 27 498 136 803 617 735 1158 -21 165 -96 363 -189 501 -150 220 -391
377 -668 435 -101 21 -349 44 -598 56 -221 10 -1249 13 -1272 3z m1322 -673
c381 -43 555 -211 555 -535 0 -330 -190 -515 -592 -575 -40 -6 -166 -13 -280
-17 l-208 -6 0 572 0 571 218 0 c119 0 258 -5 307 -10z"/>
<path d="M7780 2244 l0 -2076 673 5 c551 4 693 7 790 21 335 47 577 123 817
259 287 161 548 454 679 762 62 146 131 431 168 695 26 182 26 697 0 860 -126
799 -517 1292 -1167 1473 -243 68 -384 76 -1272 77 l-688 0 0 -2076z m1425
1401 c245 -36 447 -135 562 -275 98 -118 194 -338 242 -550 43 -194 53 -283
58 -521 6 -267 -8 -423 -57 -615 -92 -364 -249 -580 -518 -714 -171 -85 -308
-110 -649 -117 l-253 -6 0 1407 0 1406 258 0 c176 0 288 -5 357 -15z"/>
<path d="M1511 4278 c-5 -18 -281 -946 -611 -2062 -331 -1116 -604 -2035 -607
-2043 -4 -11 66 -13 396 -13 l400 0 14 47 c8 27 61 211 118 411 l103 362 713
0 712 0 11 -37 c5 -21 56 -204 113 -408 l104 -370 442 -3 443 -2 -6 22 c-3 13
-280 946 -614 2073 l-609 2050 -556 3 -555 2 -11 -32z m798 -1705 c138 -496
251 -909 251 -918 0 -13 -57 -15 -514 -15 -283 0 -517 3 -519 8 -6 12 516
1843 524 1835 3 -5 119 -414 258 -910z"/>
<path d="M18670 2235 l0 -2075 370 0 370 0 2 1467 3 1467 639 -1435 c351 -789
646 -1449 654 -1466 l16 -33 483 0 483 0 0 2075 0 2075 -365 0 -365 0 -1
-1452 c0 -1033 -3 -1448 -11 -1437 -6 8 -299 661 -652 1450 l-642 1434 -492 3
-492 2 0 -2075z"/>
</g>
</svg>
