<?xml version="1.0" standalone="no"?>
<!DOCTYPE svg PUBLIC "-//W3C//DTD SVG 20010904//EN"
 "http://www.w3.org/TR/2001/REC-SVG-20010904/DTD/svg10.dtd">
<svg version="1.0" xmlns="http://www.w3.org/2000/svg"
 width="512.000000pt" height="512.000000pt" viewBox="0 0 512.000000 512.000000"
 preserveAspectRatio="xMidYMid meet">

<g transform="translate(0.000000,512.000000) scale(0.100000,-0.100000)"
fill="#000000" stroke="none">
<path d="M3864 5112 c-6 -4 -14 -54 -17 -112 -8 -138 -27 -191 -92 -257 -86
-86 -144 -98 -550 -113 -165 -6 -259 -14 -300 -26 -222 -60 -338 -210 -352
-457 l-6 -98 59 3 59 3 7 80 c17 207 119 317 338 367 25 5 232 13 460 17 378
7 422 10 494 29 135 37 234 110 286 212 28 56 50 159 50 243 l0 68 -47 -3 -48
-3 -1 -75 c-3 -162 -56 -260 -174 -320 -41 -21 -141 -44 -240 -55 -54 -6 -55
-6 -30 11 124 84 180 207 180 396 l0 98 -32 0 c-18 0 -38 -4 -44 -8z"/>
<path d="M2018 3668 l-3 -343 -805 -5 c-617 -4 -810 -8 -827 -17 -31 -18 -60
-63 -68 -106 -10 -53 25 -121 76 -147 37 -19 62 -20 834 -20 l795 0 0 -345 0
-345 180 0 180 0 0 -128 c0 -117 2 -133 25 -177 13 -27 23 -50 22 -51 -1 -1
-36 -6 -77 -13 -111 -16 -148 -29 -187 -64 -25 -24 -36 -43 -40 -74 -5 -38 -2
-46 29 -77 56 -56 101 -61 446 -50 163 5 330 6 370 2 118 -13 166 -50 142
-108 -22 -53 -94 -73 -330 -96 -193 -18 -263 -30 -320 -55 -97 -43 -120 -86
-120 -227 l0 -99 248 -6 c256 -6 306 -13 387 -55 165 -84 238 -301 183 -547
-36 -165 -160 -279 -338 -311 -78 -14 -207 -18 -234 -8 -14 5 -16 46 -16 355
l0 349 -115 0 -115 0 0 -439 0 -439 106 -7 c167 -12 395 0 494 25 310 77 480
305 480 642 -1 192 -49 319 -164 433 -94 93 -195 141 -343 166 -56 9 -362 13
-453 6 -20 -2 -24 2 -22 18 9 56 85 79 342 105 212 22 277 35 341 71 58 33 81
68 87 131 4 61 -19 106 -76 145 -71 47 -158 53 -637 43 -159 -3 -228 -1 -247
7 -63 28 -16 53 146 78 115 18 245 63 285 99 48 43 61 90 61 229 l0 127 180 0
180 0 0 345 0 345 798 0 c752 0 799 1 832 18 48 25 83 93 75 146 -6 44 -35 90
-68 109 -17 9 -210 13 -827 17 l-805 5 -3 343 -2 342 -540 0 -540 0 -2 -342z"/>
<path d="M1866 3920 c-16 -5 -40 -19 -53 -32 -100 -93 -51 -253 85 -274 l42
-7 0 162 c0 161 0 161 -22 160 -13 0 -36 -5 -52 -9z"/>
<path d="M3150 3770 l0 -163 42 7 c24 4 56 15 73 24 33 19 75 92 75 132 0 40
-42 113 -75 132 -17 9 -49 20 -73 24 l-42 7 0 -163z"/>
<path d="M1721 1240 c-68 -18 -157 -56 -166 -70 -2 -4 8 -43 21 -89 25 -80 26
-82 47 -68 94 61 267 81 344 39 112 -59 97 -214 -26 -269 -21 -10 -77 -19
-136 -22 l-100 -6 -3 -81 -3 -81 103 -7 c185 -11 278 -80 278 -206 0 -181
-225 -250 -467 -144 l-53 23 -26 -85 c-30 -100 -30 -99 71 -133 89 -30 199
-44 290 -37 195 15 327 87 390 212 27 53 30 68 30 154 0 78 -4 102 -22 136
-33 61 -114 129 -180 151 l-57 19 50 24 c69 34 137 105 157 165 52 151 -25
306 -181 366 -82 32 -258 36 -361 9z"/>
</g>
</svg>
