<?xml version="1.0" standalone="no"?>
<!DOCTYPE svg PUBLIC "-//W3C//DTD SVG 20010904//EN"
 "http://www.w3.org/TR/2001/REC-SVG-20010904/DTD/svg10.dtd">
<svg version="1.0" xmlns="http://www.w3.org/2000/svg"
 width="300.000000pt" height="249.000000pt" viewBox="0 0 300.000000 249.000000"
 preserveAspectRatio="xMidYMid meet">

<g transform="translate(0.000000,249.000000) scale(0.100000,-0.100000)"
fill="#000000" stroke="none">
<path d="M1365 2474 c-81 -19 -117 -30 -169 -51 -217 -90 -381 -275 -448 -510
-30 -102 -32 -313 -5 -413 42 -152 147 -312 265 -405 533 -420 1305 -28 1269
645 -7 131 -25 200 -82 315 -92 187 -240 317 -442 388 -80 28 -101 31 -228 33
-77 2 -149 1 -160 -2z m480 -234 c25 -25 30 -39 30 -76 0 -39 -5 -50 -33 -75
-46 -41 -111 -41 -153 0 -53 54 -35 146 35 177 42 19 85 10 121 -26z m-252
-87 c21 -3 33 -15 43 -38 7 -18 27 -44 44 -59 26 -22 42 -26 90 -26 56 0 60
-2 89 -39 42 -53 79 -128 92 -190 16 -78 12 -82 -73 -79 -71 3 -73 4 -81 33
-35 118 -106 200 -198 230 -50 17 -144 17 -210 0 -23 -6 -28 -1 -60 57 -19 34
-35 66 -37 69 -4 10 85 41 142 49 49 8 97 6 159 -7z m-304 -130 l40 -67 -39
-38 c-62 -63 -85 -119 -85 -213 0 -67 4 -89 28 -137 15 -31 44 -70 63 -87 l35
-31 -38 -65 c-21 -35 -43 -65 -49 -65 -23 0 -124 113 -154 172 -16 34 -30 68
-30 76 0 8 12 39 26 68 30 61 28 104 -6 147 -27 34 -25 58 7 125 23 48 139
182 157 182 2 0 23 -30 45 -67z m-256 -234 c15 -11 32 -37 38 -58 31 -103
-106 -186 -179 -108 -50 53 -48 125 5 167 35 27 102 27 136 -1z m923 -124 c15
-38 -43 -188 -96 -248 -28 -33 -37 -37 -79 -37 -63 0 -111 -28 -136 -78 -23
-48 -56 -62 -145 -62 -56 0 -154 21 -191 41 -19 10 -18 13 17 77 21 37 38 68
38 69 1 1 26 -5 56 -13 162 -44 331 55 370 216 l12 50 74 0 c58 0 76 -3 80
-15z m-136 -330 c32 -17 60 -61 60 -95 0 -29 -26 -76 -52 -94 -46 -33 -128
-13 -154 35 -25 50 -18 97 20 135 38 38 77 44 126 19z"/>
<path d="M578 773 c-17 -4 -18 -30 -18 -373 l0 -369 43 -12 c68 -19 204 -17
259 4 99 39 155 148 145 283 -6 83 -30 137 -81 181 -60 53 -132 64 -248 37
l-28 -6 0 131 0 131 -27 -1 c-16 -1 -36 -3 -45 -6z m276 -334 c44 -34 60 -76
60 -159 1 -97 -22 -146 -84 -178 -44 -22 -110 -28 -158 -16 -22 6 -22 7 -20
177 l3 170 35 13 c57 20 133 17 164 -7z"/>
<path d="M2243 683 l-33 -4 0 -277 c0 -253 2 -281 20 -320 14 -32 29 -47 57
-59 47 -19 135 -21 186 -4 35 12 38 16 32 40 -9 38 -15 40 -71 28 -39 -8 -59
-7 -81 2 -51 21 -58 48 -58 215 l0 151 98 3 97 3 0 34 0 34 -97 3 -98 3 -3 78
c-2 42 -6 76 -10 75 -4 0 -22 -3 -39 -5z"/>
<path d="M1723 528 l-53 -10 0 -249 0 -249 43 0 42 0 0 217 0 218 79 3 c141 5
156 -21 156 -268 l0 -170 45 0 45 0 0 165 c0 90 -5 188 -11 217 -14 63 -57
111 -114 127 -47 13 -159 12 -232 -1z"/>
<path d="M7 358 c5 -244 19 -290 97 -330 37 -19 52 -20 156 -15 63 4 125 9
138 13 l22 6 0 249 0 249 -45 0 -45 0 0 -219 0 -218 -31 -7 c-51 -10 -97 -7
-135 9 -47 19 -64 63 -64 162 0 43 -3 122 -7 176 l-6 97 -42 0 -41 0 3 -172z"/>
<path d="M1113 339 c5 -173 8 -196 29 -237 40 -81 128 -110 275 -92 45 6 90
13 98 16 13 5 15 42 15 255 l0 249 -45 0 -45 0 0 -219 0 -219 -63 -7 c-79 -9
-128 9 -154 57 -15 28 -19 62 -21 211 l-4 177 -45 0 -46 0 6 -191z"/>
<path d="M2580 371 c0 -177 10 -249 41 -292 44 -62 138 -86 267 -68 123 17
113 -8 110 272 l-3 242 -42 3 -43 3 0 -220 0 -220 -46 -7 c-101 -15 -164 14
-184 85 -5 20 -10 109 -10 199 l0 162 -45 0 -45 0 0 -159z"/>
</g>
</svg>
