<?xml version="1.0" standalone="no"?>
<!DOCTYPE svg PUBLIC "-//W3C//DTD SVG 20010904//EN"
 "http://www.w3.org/TR/2001/REC-SVG-20010904/DTD/svg10.dtd">
<svg version="1.0" xmlns="http://www.w3.org/2000/svg"
 width="1280.000000pt" height="1280.000000pt" viewBox="0 0 1280.000000 1280.000000"
 preserveAspectRatio="xMidYMid meet">

<g transform="translate(0.000000,1280.000000) scale(0.100000,-0.100000)"
fill="#000000" stroke="none">
<path d="M7512 11165 c-17 -14 -53 -70 -82 -125 -28 -55 -60 -109 -72 -120
-40 -37 -114 -53 -253 -55 -248 -5 -500 -78 -860 -250 -288 -137 -406 -211
-675 -419 -556 -432 -975 -874 -1114 -1178 -35 -76 -89 -275 -152 -558 -20
-91 -40 -183 -45 -206 -8 -34 -28 -57 -136 -155 -298 -270 -477 -511 -500
-674 -18 -138 97 -330 256 -426 105 -63 187 -84 331 -84 147 1 208 20 283 86
68 59 93 121 111 269 18 141 46 260 80 336 30 66 89 131 126 139 36 8 62 -5
218 -112 125 -86 152 -117 152 -170 0 -48 -46 -301 -57 -315 -6 -7 -79 -141
-163 -298 -84 -157 -153 -286 -154 -287 0 0 -41 12 -90 29 -149 50 -330 39
-473 -28 -234 -111 -375 -350 -360 -613 9 -168 65 -294 184 -414 73 -73 144
-119 245 -155 65 -24 87 -27 203 -27 144 0 187 10 306 72 191 99 323 307 334
530 2 46 7 88 9 92 3 5 54 12 113 15 60 4 162 11 228 16 189 14 249 19 425 30
225 15 303 26 353 51 38 19 577 328 1002 574 220 127 222 128 228 110 3 -7 9
-63 13 -123 l7 -110 -41 -7 c-54 -9 -176 -68 -232 -112 -305 -241 -333 -683
-61 -954 83 -82 153 -126 258 -161 57 -19 89 -23 193 -23 137 1 181 10 297 67
102 49 217 168 272 278 124 253 79 539 -118 738 -100 100 -247 170 -391 184
-30 4 -28 -12 -66 430 l-27 316 21 54 c11 29 118 287 237 573 119 286 280 674
358 863 l142 343 75 40 c101 54 239 154 330 239 l75 70 -53 50 -54 50 -76 -69
c-157 -141 -333 -247 -506 -305 -43 -14 -80 -26 -82 -26 -2 0 -4 17 -4 38 0
55 -21 69 -151 102 -125 32 -155 49 -182 103 -24 48 -15 91 31 153 61 81 77
85 277 69 396 -31 362 -32 534 15 190 53 215 71 209 142 -4 41 -16 61 -79 143
-160 208 -185 248 -279 450 -38 80 -54 101 -149 195 -70 69 -175 154 -306 250
-110 79 -238 175 -284 212 -97 79 -136 88 -189 43z m228 -256 c63 -47 178
-132 254 -188 77 -57 164 -127 195 -156 l55 -53 -29 -42 c-72 -104 -280 -263
-565 -429 -154 -91 -137 -86 -221 -61 -55 17 -74 19 -77 10 -3 -7 -20 -30 -38
-50 -19 -21 -34 -42 -34 -48 0 -14 78 -42 248 -87 78 -21 142 -43 142 -49 0
-6 -45 -76 -100 -155 -55 -79 -102 -152 -106 -163 -9 -29 14 -75 44 -87 15 -6
107 -31 205 -55 98 -24 180 -46 183 -48 2 -3 -2 -12 -9 -20 -9 -12 -43 -19
-132 -27 -66 -6 -169 -16 -230 -21 -243 -24 -310 -28 -316 -22 -3 4 -27 95
-52 202 -44 185 -90 372 -213 875 -88 358 -108 445 -102 450 14 14 186 35 289
35 74 0 134 5 165 15 70 21 74 20 74 -20 0 -53 21 -136 35 -142 8 -2 31 7 51
21 l38 25 -3 100 c-2 95 -1 103 33 182 44 101 62 123 85 106 9 -7 68 -51 131
-98z m-1023 -289 c3 -16 9 -30 13 -30 4 0 13 -30 20 -67 6 -38 17 -86 25 -108
7 -22 18 -62 25 -90 6 -27 15 -66 20 -85 19 -74 39 -167 46 -212 3 -27 9 -48
13 -48 7 0 26 -82 36 -160 3 -24 10 -50 16 -56 6 -7 11 -28 12 -47 1 -19 6
-33 11 -30 4 3 5 -5 1 -17 -5 -17 -4 -21 5 -15 10 6 12 1 7 -23 -4 -17 -2 -34
3 -37 6 -4 8 -11 5 -16 -4 -5 -2 -9 3 -9 5 0 9 -18 9 -41 0 -23 6 -44 12 -49
7 -4 14 -26 16 -49 1 -23 5 -44 8 -47 3 -3 3 -13 0 -22 -4 -9 -2 -13 4 -9 12
8 28 -57 18 -74 -4 -6 0 -18 9 -28 9 -10 16 -29 15 -42 0 -13 2 -45 4 -71 6
-68 -12 -96 -132 -200 l-44 -38 -171 1 c-244 1 -248 2 -356 99 -15 14 -46 41
-69 60 -23 19 -51 45 -63 58 -12 12 -26 22 -32 22 -6 0 -26 15 -43 33 -38 37
-51 48 -141 124 -37 31 -92 79 -122 107 -30 28 -91 83 -134 121 -43 39 -95 85
-113 103 -19 17 -39 32 -44 32 -5 0 -16 11 -25 25 -9 14 -23 25 -30 25 -8 0
-18 8 -21 18 -7 17 -43 51 -54 48 -10 -2 -77 69 -72 77 2 4 0 7 -5 7 -20 0 -6
34 28 71 20 21 40 39 44 39 4 0 21 14 38 30 17 17 33 29 35 26 5 -4 29 14 82
63 14 13 42 35 61 50 19 14 42 33 50 41 34 31 174 127 238 162 184 101 418
218 434 218 8 0 18 4 24 8 5 5 44 19 86 32 44 13 75 28 71 33 -3 6 -2 8 3 5 5
-3 27 -2 49 2 63 12 65 12 72 -20z m1568 -375 c41 -40 31 -106 -20 -132 -48
-25 -125 18 -125 69 0 25 26 75 42 81 34 14 80 6 103 -18z m249 -224 c47 -63
86 -118 86 -122 0 -11 -167 -61 -205 -62 -76 -1 -306 16 -310 23 -3 5 36 37
87 72 51 34 127 96 168 138 41 42 78 73 81 70 4 -3 46 -56 93 -119z m-3002
-428 c446 -392 553 -487 558 -493 3 -3 21 -18 40 -34 19 -16 69 -58 109 -95
41 -36 98 -86 127 -111 29 -25 53 -52 53 -60 1 -19 -58 -140 -124 -255 -61
-105 -86 -149 -161 -290 -65 -123 -71 -125 -167 -69 -50 30 -255 140 -389 211
-16 8 -28 19 -28 24 0 5 -7 9 -15 9 -15 0 -366 181 -395 204 -8 7 -39 23 -67
36 -29 13 -53 27 -53 32 0 4 -3 7 -7 6 -11 -3 -96 42 -104 54 -3 5 -10 10 -15
10 -11 0 -43 14 -64 27 -8 5 -68 37 -132 72 -107 56 -118 64 -118 89 0 15 7
33 15 40 8 6 13 15 12 19 -5 17 128 211 191 278 12 13 22 27 22 32 0 12 327
347 397 407 35 30 70 54 77 54 7 0 114 -89 238 -197z m2639 -495 c-8 -22 -240
-581 -557 -1342 -84 -202 -155 -370 -158 -373 -3 -3 -157 -9 -343 -14 -186 -5
-509 -13 -718 -19 -527 -14 -476 -16 -465 18 5 15 19 94 30 176 22 160 22 159
133 361 94 172 106 194 250 460 189 349 198 365 230 389 26 19 45 21 217 26
173 5 191 7 208 25 10 11 51 57 92 102 55 63 82 85 109 92 20 5 169 21 331 36
325 29 486 49 570 70 78 19 81 19 71 -7z m-3513 -354 c59 -31 159 -85 222
-119 63 -34 160 -86 215 -115 55 -29 152 -81 215 -115 63 -34 165 -88 225
-120 61 -32 129 -69 153 -82 42 -23 238 -128 277 -149 11 -5 19 -18 17 -27 -2
-10 -34 -75 -72 -145 l-69 -127 -22 -165 -23 -165 -98 -100 c-127 -130 -127
-133 -17 -241 l82 -79 -35 -3 c-25 -2 -92 20 -239 79 -112 45 -205 83 -207 84
-2 2 11 90 29 197 19 111 29 205 26 220 -6 21 -53 59 -211 167 -112 78 -208
141 -214 141 -5 0 -32 20 -60 45 -51 46 -92 114 -92 153 0 21 -5 22 -70 22
l-70 0 0 -35 c0 -45 30 -123 64 -168 l27 -35 -54 -54 c-103 -102 -165 -272
-202 -551 -11 -85 -17 -103 -41 -129 -47 -49 -107 -70 -204 -71 -232 -2 -426
148 -438 340 -5 77 9 120 66 207 64 97 339 364 493 479 32 24 39 38 62 125 15
53 40 160 57 237 48 221 82 355 92 355 4 0 56 -25 116 -56z m2827 -1566 c3
-29 7 -75 8 -102 l2 -50 -175 -101 c-363 -210 -1066 -613 -1100 -630 -36 -18
-159 -30 -825 -75 -82 -5 -177 -12 -211 -15 l-61 -5 -36 73 c-21 42 -63 102
-97 140 l-62 67 80 147 c44 82 106 198 137 258 32 61 63 116 70 123 9 10 55
-5 238 -78 l227 -90 141 0 141 0 29 29 c50 50 41 74 -55 166 -73 69 -106 114
-106 144 0 5 111 11 248 15 136 4 290 8 342 11 52 2 250 7 440 11 190 3 347 8
349 10 2 2 64 4 137 4 l133 0 6 -52z m-2840 -714 c36 -9 69 -22 75 -29 7 -9
-18 -57 -91 -176 -170 -274 -170 -274 -151 -278 14 -3 91 4 322 29 47 5 113
12 148 15 l62 6 0 -58 c0 -159 -88 -310 -234 -405 -81 -52 -151 -72 -261 -72
-141 0 -246 44 -345 144 -73 72 -106 132 -132 232 -91 360 242 684 607 592z
m3167 -10 c105 -34 223 -135 275 -238 40 -78 53 -135 53 -227 0 -253 -172
-453 -421 -490 -268 -39 -521 150 -558 419 -5 41 -8 81 -7 90 2 9 7 40 11 67
10 69 64 181 116 239 52 59 141 118 210 141 28 10 52 15 54 13 5 -5 21 -145
36 -322 l13 -148 63 4 c34 2 65 7 69 10 5 6 -5 157 -25 368 -4 47 -6 89 -4 93
6 9 47 2 115 -19z m-2881 -197 c21 -33 39 -65 39 -72 0 -15 -32 -21 -147 -31
-64 -5 -83 -4 -83 6 0 7 25 53 56 102 55 86 57 88 76 71 10 -9 37 -44 59 -76z"/>
<path d="M1110 4742 c0 -36 2 -38 44 -50 56 -14 104 -55 127 -107 17 -37 19
-75 18 -500 0 -483 -2 -509 -46 -557 -22 -25 -68 -49 -108 -58 -27 -5 -30 -10
-33 -48 l-3 -42 296 0 296 0 -3 41 c-3 41 -4 42 -51 54 -56 14 -102 54 -128
110 -15 33 -19 65 -19 193 l0 152 73 0 c329 0 539 107 603 308 26 81 16 229
-20 304 -52 109 -149 182 -292 218 -69 18 -111 20 -416 20 l-338 0 0 -38z
m670 -78 c116 -34 179 -105 200 -223 16 -88 5 -173 -31 -247 -53 -112 -136
-153 -326 -162 l-123 -5 0 327 0 326 113 0 c75 0 132 -5 167 -16z"/>
<path d="M2280 4742 c0 -37 1 -38 47 -51 61 -16 108 -52 135 -104 22 -41 22
-54 26 -402 5 -460 -1 -570 -35 -622 -31 -48 -83 -84 -131 -92 -35 -6 -37 -8
-40 -49 l-3 -42 525 0 526 0 0 130 0 130 -44 0 c-42 0 -44 -1 -50 -35 -9 -47
-59 -102 -106 -116 -37 -11 -423 -10 -434 2 -3 3 -7 129 -8 280 l-3 274 40 3
c64 5 119 -7 164 -36 43 -27 81 -89 81 -130 0 -19 5 -22 45 -22 l45 0 0 241 0
240 -42 -3 c-41 -3 -43 -5 -50 -43 -10 -50 -60 -113 -104 -131 -19 -8 -67 -14
-109 -14 l-75 0 0 93 c0 50 3 170 7 265 l6 172 214 0 c234 0 248 -3 296 -59
14 -17 28 -44 32 -61 6 -28 10 -30 51 -30 l44 0 0 125 0 125 -525 0 -525 0 0
-38z"/>
<path d="M3580 4741 c0 -37 1 -39 45 -50 67 -17 120 -74 135 -144 7 -38 10
-195 8 -498 l-3 -444 -27 -45 c-28 -49 -89 -90 -132 -90 -24 0 -26 -3 -26 -45
l0 -45 296 0 295 0 -3 42 c-3 41 -5 43 -40 49 -55 9 -113 51 -136 101 -16 35
-21 73 -27 201 l-7 157 74 0 c98 0 240 17 308 37 134 38 237 120 286 226 26
56 29 72 29 172 0 98 -3 116 -27 167 -37 80 -108 152 -185 189 -111 53 -164
59 -530 59 l-333 0 0 -39z m705 -89 c60 -28 109 -73 138 -127 29 -56 36 -209
12 -290 -21 -74 -96 -153 -170 -179 -63 -22 -288 -35 -299 -17 -4 7 -4 154 0
327 l7 316 131 -4 c110 -3 139 -7 181 -26z"/>
<path d="M4790 4740 c0 -32 4 -40 18 -40 38 0 120 -51 148 -92 l29 -41 2 -476
3 -476 -23 -39 c-31 -55 -86 -96 -136 -103 -41 -6 -41 -6 -41 -49 l0 -44 525
0 525 0 0 130 0 130 -43 0 c-42 0 -44 -1 -55 -39 -33 -108 -78 -124 -335 -120
-108 2 -199 8 -204 12 -4 5 -9 132 -11 283 l-3 274 58 0 c32 0 76 -5 98 -11
54 -15 111 -74 127 -132 12 -47 12 -47 55 -47 l43 0 -2 238 -3 237 -38 0 c-37
0 -39 -1 -56 -53 -33 -97 -88 -132 -206 -132 l-75 0 0 228 c0 125 3 244 6 265
l7 37 217 0 c209 0 218 -1 251 -23 31 -21 60 -64 73 -109 4 -14 16 -18 51 -18
l45 0 0 125 0 125 -525 0 -525 0 0 -40z"/>
<path d="M6890 4742 c0 -36 2 -38 44 -50 25 -6 60 -25 79 -42 69 -60 67 -47
67 -567 0 -435 -2 -471 -19 -509 -23 -50 -73 -91 -127 -102 -37 -7 -39 -10
-42 -50 l-3 -42 295 0 296 0 0 45 c0 42 -2 45 -25 45 -32 0 -93 31 -122 62
-44 47 -53 88 -53 248 l0 150 73 0 c401 0 618 153 619 435 0 185 -87 311 -261
375 -95 36 -144 40 -487 40 l-334 0 0 -38z m676 -78 c77 -22 133 -68 169 -139
27 -53 30 -68 30 -154 0 -122 -21 -188 -80 -246 -63 -64 -133 -86 -282 -93
l-123 -5 0 327 0 326 116 0 c76 0 135 -5 170 -16z"/>
<path d="M8437 4678 c-19 -57 -63 -184 -97 -283 -34 -99 -86 -252 -117 -340
-30 -88 -75 -220 -101 -294 -25 -73 -59 -154 -76 -179 -38 -57 -110 -103 -171
-109 l-45 -6 0 -43 0 -44 241 0 240 0 -3 43 c-3 36 -6 42 -28 45 -40 6 -88 49
-101 91 -10 34 -8 50 27 155 l38 116 242 0 242 0 41 -123 c23 -67 41 -138 41
-158 0 -38 -29 -74 -65 -81 -16 -2 -21 -12 -23 -46 l-3 -42 240 0 241 0 0 45
c0 41 -2 45 -25 45 -39 0 -87 24 -122 62 -23 24 -44 67 -74 153 -54 157 -337
986 -357 1048 l-16 47 -67 0 -67 0 -35 -102z m156 -441 c53 -161 97 -296 97
-300 0 -4 -92 -7 -205 -7 -113 0 -205 1 -205 3 0 2 45 135 100 297 55 161 100
294 100 296 0 2 3 4 8 4 4 0 51 -132 105 -293z"/>
<path d="M9340 4742 c0 -37 1 -38 47 -51 61 -16 107 -52 136 -104 22 -42 22
-44 22 -507 l0 -465 -27 -47 c-31 -52 -83 -89 -137 -97 -34 -6 -36 -9 -39 -49
l-3 -42 525 0 526 0 0 130 0 130 -45 0 c-41 0 -45 -2 -45 -24 0 -29 -35 -82
-73 -110 -25 -19 -45 -21 -180 -24 -84 -2 -185 -1 -224 3 l-73 7 0 280 0 281
74 -5 c116 -8 187 -61 210 -160 6 -25 11 -28 46 -28 l40 0 0 240 0 240 -40 0
c-35 0 -40 -3 -46 -27 -11 -53 -25 -80 -57 -111 -43 -41 -75 -52 -158 -52
l-69 0 0 265 0 265 215 0 c237 0 250 -3 299 -61 15 -18 30 -45 33 -60 5 -27 9
-29 49 -29 l44 0 0 125 0 125 -525 0 -525 0 0 -38z"/>
<path d="M10656 4623 c-4 -82 -9 -165 -12 -185 l-6 -38 51 0 c34 0 51 4 51 13
0 28 50 115 89 154 23 23 67 54 99 70 56 27 61 27 271 31 177 3 212 2 205 -9
-10 -17 -328 -508 -591 -911 -157 -243 -193 -304 -193 -333 l0 -35 524 0 524
0 6 108 c4 59 9 142 12 185 l6 77 -49 0 -48 0 -19 -52 c-25 -70 -100 -148
-175 -182 l-59 -26 -240 2 -239 3 165 255 c91 140 266 410 389 599 193 297
223 349 223 382 l0 39 -489 0 -489 0 -6 -147z"/>
</g>
</svg>
